<svg width="128" height="128" viewBox="0 0 128 128" fill="none" xmlns="http://www.w3.org/2000/svg">
<g id="Salary" clip-path="url(#clip0_586_167)">
<g id="Group">
<g id="Group_2">
<g id="Group_3">
<g id="Group_4">
<g id="Group_5">
<g id="Group_6">
<g id="Group_7">
<path id="Vector" d="M78.4511 23.7286C78.4511 23.7286 90.7161 7.81015 87.1894 3.2434C85.9874 1.68715 84.9624 3.80065 82.4766 3.80065C79.5559 3.80065 79.5559 1.88965 76.6349 1.88965C73.7144 1.88965 73.7144 3.80065 70.7939 3.80065C67.8736 3.80065 67.8736 1.88965 64.9534 1.88965C62.0331 1.88965 62.0331 3.80065 59.1126 3.80065C56.6239 3.80065 55.6031 1.65965 54.3931 3.21665C50.8646 7.75815 62.9504 23.7284 62.9504 23.7284C9.57413 58.8179 26.7844 106.538 58.2986 106.538H83.2919C114.901 106.538 132.005 58.9344 78.4511 23.7286Z" fill="#7B68EE"/>
</g>
</g>
<g id="Group_8">
<path id="Vector_2" d="M78.452 23.7286C78.452 23.7286 90.717 7.81015 87.1902 3.2434C85.9882 1.68715 84.9632 3.80065 82.4775 3.80065C79.5567 3.80065 79.5567 1.88965 76.6357 1.88965C73.7152 1.88965 73.7152 3.80065 70.7947 3.80065C70.651 3.80065 70.5195 3.79265 70.3892 3.78365C69.2157 8.81365 63.9277 16.6501 60.9017 20.8459C62.0935 22.5947 62.9512 23.7284 62.9512 23.7284C62.2392 24.1964 61.5425 24.6671 60.8555 25.1396C111.853 60.1924 94.789 106.538 63.6 106.538H83.2927C114.902 106.538 132.006 58.9344 78.452 23.7286Z" fill="#9C8BFF"/>
</g>
<g id="Group_9">
<path id="Vector_3" d="M80.7319 29.3906C73.6051 31.1903 66.5641 31.1906 59.4361 29.3906C56.9551 28.7641 55.5489 25.9743 56.4416 23.4386C56.4516 23.4103 56.4616 23.3818 56.4716 23.3536C57.2201 21.2276 59.3431 20.0346 61.4239 20.5568C67.2596 22.0221 72.9069 22.0223 78.7444 20.5568C80.8251 20.0343 82.9479 21.2276 83.6966 23.3536C83.7066 23.3818 83.7166 23.4103 83.7266 23.4386C84.6191 25.9746 83.2129 28.7641 80.7319 29.3906Z" fill="white"/>
</g>
</g>
</g>
</g>
<g id="Group_10">
<g id="Group_11">
<g id="Group_12">
<g id="Group_13">
<g id="Group_14">
<g id="Group_15">
<g id="Group_16">
<g id="Group_17">
<g id="Group_18">
<g id="Group_19">
<g id="Group_20">
<g id="Group_21">
<g id="Group_22">
<path id="Vector_4" d="M13.7207 114.725L40.8622 124.828C43.1675 125.686 45.6072 126.125 48.0667 126.125H76.0382C79.9527 126.125 83.7865 125.012 87.093 122.917L122.116 100.725C124.427 98.6729 124.855 95.2246 123.116 92.6699C121.214 89.8746 118.068 89.3886 114.606 91.0259L80.5075 106.04L80.5477 100.507C80.0962 95.9666 76.6 92.3224 72.0817 91.6829L51.317 89.2921C46.527 88.6144 44.1332 87.0091 39.9575 84.5664C34.2565 81.2314 27.7705 79.4736 21.1657 79.4736H13.7207V114.725Z" fill="#FFDDCE"/>
</g>
<g id="Group_23">
<path id="Vector_5" d="M13.7207 114.725L40.8622 124.828C43.1675 125.686 45.6072 126.125 48.0667 126.125H76.0382C79.9527 126.125 83.7865 125.012 87.093 122.917L122.116 100.725C124.427 98.6729 124.855 95.2246 123.116 92.6699C121.214 89.8746 118.068 89.3886 114.606 91.0259L80.5075 106.04L80.5477 100.507C80.0962 95.9666 76.6 92.3224 72.0817 91.6829L51.317 89.2921C46.527 88.6144 44.1332 87.0091 39.9575 84.5664C34.2565 81.2314 27.7705 79.4736 21.1657 79.4736H13.7207V114.725Z" fill="#FFDDCE"/>
</g>
<path id="Vector_6" d="M123.116 92.6703C121.214 89.8751 118.068 89.3891 114.606 91.0263L105.227 95.1561C105.681 95.8751 106.042 96.4488 106.042 96.4488C107.78 99.0036 107.352 102.452 105.042 104.504L84.6345 117.435C81.9467 118.665 79.0162 119.311 76.0382 119.311H48.0667C45.6072 119.311 43.1672 118.872 40.8622 118.014L13.7207 107.911V114.726L40.8622 124.828C43.1675 125.686 45.6072 126.125 48.0667 126.125H70.9197H76.0382C79.9527 126.125 83.7864 125.013 87.0929 122.918L122.116 100.725C124.426 98.6733 124.855 95.2251 123.116 92.6703Z" fill="#FFCBBE"/>
<g id="Group_24">
<path id="Vector_7" d="M78.001 94.8086L78 94.9421L78.088 94.9033C78.0597 94.8711 78.03 94.8401 78.001 94.8086Z" fill="#F5DBCC"/>
</g>
</g>
</g>
<path id="Vector_8" d="M19.5615 120.132C19.5615 122.101 17.965 123.697 15.9957 123.697H7.38997C5.42072 123.697 3.82422 122.101 3.82422 120.132V76.4705C3.82422 74.5013 5.42072 72.9048 7.38997 72.9048H15.9957C17.965 72.9048 19.5615 74.5013 19.5615 76.4705V120.132Z" fill="#7B68EE"/>
</g>
</g>
</g>
</g>
</g>
</g>
</g>
</g>
</g>
</g>
</g>
<g id="Group_25">
<path id="Vector_9" d="M124.667 91.6158C122.279 88.1068 118.229 87.25 113.829 89.3205L111.497 90.3473C115.174 82.5098 115.63 73.773 113.799 65.5205C111.697 56.0423 106.619 46.8603 98.7075 38.2295C98.008 37.4663 96.8222 37.4148 96.0587 38.1145C95.2955 38.814 95.244 39.9998 95.9437 40.7633C103.405 48.9023 108.181 57.505 110.139 66.3323C112.201 75.6305 111.002 85.2195 105.739 92.8823L82.4035 103.157L82.4227 100.522C82.4232 100.455 82.4202 100.389 82.4135 100.322C81.8747 94.9055 77.7342 90.5898 72.3445 89.8273C72.3285 89.8248 72.3125 89.8228 72.2962 89.821L51.556 87.433C43.5807 86.2978 41.5267 81.5185 30.7257 78.7933C29.9795 72.4608 30.9742 65.7185 33.7007 58.9593C37.807 48.7798 45.8402 38.8898 56.9767 30.2815C61.1275 33.2245 79.6457 33.5908 83.7897 29.7943C85.9127 31.4065 87.939 33.068 89.8265 34.7498C90.1837 35.0683 90.6292 35.2248 91.073 35.2248C91.589 35.2248 92.103 35.013 92.4732 34.5973C93.162 33.8243 93.0935 32.6393 92.3205 31.9505C90.2515 30.1073 88.026 28.2885 85.6917 26.5308C86.2387 24.2113 85.4732 21.4965 83.4532 19.8805C89.323 10.9775 91.0302 5.15028 88.672 2.09728C87.0522 2.95639e-05 85.0372 0.98428 84.1767 1.40478C82.7182 2.11678 81.923 2.15428 80.581 1.27628C78.0207 -0.39897 75.3297 -0.45297 72.687 1.27628C71.328 2.16553 70.2577 2.16553 68.8992 1.27628C66.3387 -0.39897 63.6487 -0.45297 61.0055 1.27628C59.648 2.16478 58.8497 2.10978 57.4142 1.39628C56.5547 0.96903 54.542 -0.0314705 52.912 2.06603C50.6067 5.03303 52.149 10.6765 57.6227 19.2768C57.2875 19.458 56.968 19.6708 56.6697 19.9138C54.4927 17.6148 50.926 15.217 45.768 15.793C41.4897 16.2718 38.335 14.858 36.4415 13.588C35.5815 13.012 34.417 13.2415 33.8405 14.101C33.264 14.961 33.4937 16.1255 34.3535 16.702C36.7672 18.3203 40.7787 20.1218 46.184 19.519C50.169 19.072 52.873 21.1085 54.5562 23.181C54.5332 23.261 54.512 23.3415 54.4922 23.422C53.0565 23.4445 50.9107 23.5785 48.5477 24.07C42.8647 25.2523 38.6462 27.953 36.348 31.881C35.8252 32.7745 36.1257 33.923 37.0192 34.446C37.913 34.9688 39.0612 34.668 39.584 33.7745C43.0025 27.9323 51.3467 27.2178 54.661 27.173C54.6752 27.2143 54.692 27.255 54.707 27.296C42.88 36.4193 34.646 46.5935 30.224 57.556C27.429 64.4853 26.3125 71.4273 26.8792 78.0245C25.0815 77.7585 23.263 77.6158 21.4357 77.6033V76.4695C21.4357 73.4698 18.9952 71.0295 15.9955 71.0295H7.38947C4.38972 71.0295 1.94922 73.47 1.94922 76.4695V120.131C1.94922 123.131 4.38972 125.571 7.38947 125.571H15.9952C18.995 125.571 21.4355 123.13 21.4355 120.131V119.597L40.2082 126.584C42.731 127.523 45.375 127.999 48.0667 127.999H76.0382C80.3147 127.999 84.4845 126.789 88.0965 124.5C125.411 100.845 123.145 102.317 123.361 102.126C126.366 99.4578 126.928 94.9393 124.667 91.6158ZM80.2717 27.5728C73.4162 29.3038 66.7507 29.3038 59.8937 27.5728C56.9515 26.829 57.804 21.5815 60.966 22.3745C67.1005 23.9145 73.0645 23.9145 79.1995 22.3745C82.3065 21.5945 83.2612 26.8173 80.2717 27.5728ZM55.702 4.73253C55.7167 4.73978 55.7315 4.74728 55.7455 4.75428C58.2827 6.01528 60.506 6.08378 63.0582 4.41403C66.2522 2.32328 66.599 5.67553 70.7927 5.67553C72.8117 5.67553 73.926 4.94653 74.7395 4.41403C76.0987 3.52453 77.1692 3.52503 78.5282 4.41403C81.0917 6.09153 83.2612 6.00878 85.8722 4.74953C86.258 6.14003 85.385 10.2853 79.826 18.5618C77.0655 18.5148 73.0595 21.226 61.719 18.7023C56.172 10.3188 55.3142 6.13328 55.702 4.73253ZM120.973 99.23L86.0897 121.334C83.079 123.242 79.6032 124.251 76.0385 124.251H48.067C45.8232 124.251 43.6192 123.854 41.5162 123.071L21.4355 115.597V95.408C21.4355 94.3725 20.5962 93.5333 19.561 93.5333C18.5257 93.5333 17.6865 94.3725 17.6865 95.408V120.132C17.6865 121.064 16.9277 121.823 15.9955 121.823H7.38947C6.45697 121.823 5.69847 121.064 5.69847 120.132V76.4705C5.69847 75.538 6.45697 74.7798 7.38947 74.7798H15.9952C16.9277 74.7798 17.6862 75.5383 17.6862 76.4705V86.644C17.6862 87.6795 18.5255 88.5188 19.5607 88.5188C20.596 88.5188 21.4352 87.6795 21.4352 86.644V81.3535C36.943 81.4723 40.4297 89.646 51.0542 91.1488C51.0702 91.1513 51.0862 91.1533 51.1022 91.155L71.8415 93.5428C75.473 94.067 78.2677 96.9588 78.6722 100.6L78.6462 104.166H59.305C58.2697 104.166 57.4302 105.005 57.4302 106.04C57.4302 107.076 58.2695 107.915 59.305 107.915H80.5072C80.744 107.915 81.0175 107.863 81.2555 107.759C81.2937 107.742 115.321 92.76 115.361 92.7425C117.814 91.6525 120.05 91.4968 121.566 93.7253C122.745 95.457 122.484 97.7983 120.973 99.23Z" fill="#101828"/>
<path id="Vector_10" d="M70.577 85.055C71.6123 85.055 72.4518 84.2158 72.4518 83.1803V80.0728C77.7145 79.2188 80.7853 74.959 81.4533 70.985C82.2878 66.0208 79.6875 61.7035 74.829 59.9863C73.9705 59.6828 73.1805 59.3925 72.4515 59.1123V47.1593C74.6693 47.527 76.0008 48.6748 76.0978 48.7605C76.8593 49.453 78.0378 49.4018 78.7365 48.6443C79.4385 47.8833 79.3905 46.6973 78.6295 45.9953C78.4973 45.8733 76.2013 43.806 72.4515 43.3738V40.7078C72.4515 39.6723 71.6123 38.833 70.5768 38.833C69.5415 38.833 68.7023 39.6723 68.7023 40.7078V43.5253C68.2503 43.6118 67.7873 43.7218 67.3115 43.865C64.1315 44.8228 61.7545 47.5495 61.1078 50.9808C60.521 54.0945 61.5083 57.089 63.684 58.7955C64.9333 59.7753 66.5058 60.6723 68.7023 61.6313V76.4565C66.5343 76.3648 65.1998 75.9578 62.8718 74.4348C62.0055 73.8683 60.8435 74.1105 60.2768 74.9773C59.71 75.8435 59.9528 77.0055 60.8193 77.5723C63.8795 79.5743 65.9253 80.0965 68.7023 80.2045V83.1803C68.7023 84.2158 69.5415 85.055 70.577 85.055ZM65.998 55.8455C64.9278 55.006 64.4655 53.408 64.7923 51.6753C65.0953 50.0683 66.2 48.1158 68.393 47.4553C68.4973 47.4238 68.5998 47.3968 68.7023 47.3693V57.4955C67.5798 56.935 66.6995 56.3958 65.998 55.8455ZM73.5795 63.5213C78.2445 65.17 77.9555 69.1755 77.7558 70.3638C77.3423 72.824 75.5363 75.4505 72.4515 76.241V63.115C72.8165 63.2485 73.1893 63.3833 73.5795 63.5213Z" fill="white"/>
</g>
</g>
</g>
<defs>
<clipPath id="clip0_586_167">
<rect width="128" height="128" fill="white"/>
</clipPath>
</defs>
</svg>
