<svg width="89" height="79" viewBox="0 0 89 79" fill="none" xmlns="http://www.w3.org/2000/svg">
<path opacity="0.2" d="M38.7072 3.55861C42.0259 1.39562 46.3087 1.39562 49.6274 3.55861L72.0426 18.1675C74.0077 19.4483 75.4601 21.379 76.1457 23.6222L85.5001 54.2265C87.0795 59.3936 84.2687 64.8808 79.1526 66.6184L47.3831 77.4079C45.2977 78.1161 43.0369 78.1161 40.9515 77.4079L9.18199 66.6184C4.06587 64.8808 1.25515 59.3936 2.83451 54.2265L12.1889 23.6222C12.8745 21.379 14.3269 19.4483 16.292 18.1675L38.7072 3.55861Z" fill="url(#paint0_linear_1129_10)"/>
<circle cx="15" cy="19" r="7" fill="url(#paint1_linear_1129_10)"/>
<path d="M51.3763 22.6405H35.6239C33.3725 22.6405 31.541 24.4722 31.541 26.7236V57.312H55.459V26.7236C55.459 24.4724 53.6276 22.6405 51.3763 22.6405ZM36.6865 26.2932H36.2147C35.8426 26.2932 35.5408 25.9918 35.5408 25.6196C35.5408 25.2475 35.8425 24.9457 36.2147 24.9457H36.6865C37.0588 24.9457 37.3605 25.2475 37.3605 25.6196C37.3605 25.992 37.0587 26.2932 36.6865 26.2932ZM45.71 26.2932H41.29C40.9179 26.2932 40.6163 25.9918 40.6163 25.6196C40.6163 25.2475 40.9178 24.9457 41.29 24.9457H45.71C46.0822 24.9457 46.3837 25.2476 46.3837 25.6196C46.3837 25.9918 46.0821 26.2932 45.71 26.2932ZM31.541 60.2768C31.541 62.5282 33.3726 64.3594 35.6239 64.3594H51.3763C53.6275 64.3594 55.459 62.528 55.459 60.2768V58.6595H31.541V60.2768ZM41.29 60.6495H45.71C46.0822 60.6495 46.3837 60.9508 46.3837 61.323C46.3837 61.6951 46.0822 61.997 45.71 61.997H41.29C40.9178 61.997 40.6163 61.6951 40.6163 61.323C40.6163 60.9508 40.9179 60.6495 41.29 60.6495Z" fill="url(#paint2_linear_1129_10)"/>
<defs>
<linearGradient id="paint0_linear_1129_10" x1="33.5671" y1="-3.62914e-06" x2="80.4549" y2="35.3586" gradientUnits="userSpaceOnUse">
<stop stop-color="#FF5F6D"/>
<stop offset="1" stop-color="#FFC371"/>
</linearGradient>
<linearGradient id="paint1_linear_1129_10" x1="13.32" y1="12" x2="21.3644" y2="17.391" gradientUnits="userSpaceOnUse">
<stop stop-color="#FF5F6D"/>
<stop offset="1" stop-color="#FFC371"/>
</linearGradient>
<linearGradient id="paint2_linear_1129_10" x1="28.2879" y1="58.7122" x2="58.712" y2="28.288" gradientUnits="userSpaceOnUse">
<stop stop-color="#FC4422"/>
<stop offset="1" stop-color="#FFBB32"/>
</linearGradient>
</defs>
</svg>
