<svg width="89" height="79" viewBox="0 0 89 79" fill="none" xmlns="http://www.w3.org/2000/svg">
<path opacity="0.2" d="M38.7072 3.55861C42.0259 1.39562 46.3087 1.39562 49.6274 3.55861L72.0426 18.1675C74.0077 19.4483 75.4601 21.379 76.1457 23.6222L85.5001 54.2265C87.0795 59.3936 84.2687 64.8808 79.1526 66.6184L47.3831 77.4079C45.2977 78.1161 43.0369 78.1161 40.9515 77.4079L9.18199 66.6184C4.06587 64.8808 1.25515 59.3936 2.83451 54.2265L12.1889 23.6222C12.8745 21.379 14.3269 19.4483 16.292 18.1675L38.7072 3.55861Z" fill="url(#paint0_linear_1129_47)"/>
<circle cx="15" cy="19" r="7" fill="url(#paint1_linear_1129_47)"/>
<path d="M64.9136 40.5585C63.3544 36.7199 59.31 32.2889 54.3582 30.0448C51.5241 28.7605 48.3755 28.1094 45 28.1094C41.6244 28.1094 38.4758 28.7605 35.6418 30.0449C30.6714 32.2973 26.6416 36.7349 25.0863 40.5585C24.9712 40.8416 24.9712 41.1584 25.0863 41.4414C26.6515 45.2892 30.6954 49.7135 35.6418 51.9551C38.4758 53.2394 41.6244 53.8906 45 53.8906C48.3755 53.8906 51.5241 53.2395 54.3582 51.9551C59.3187 49.707 63.358 45.2716 64.9136 41.4414C65.0287 41.1584 65.0287 40.8416 64.9136 40.5585Z" fill="url(#paint2_linear_1129_47)"/>
<path d="M45 30.4531C39.1845 30.4531 34.4531 35.1845 34.4531 41C34.4531 46.8155 39.1845 51.5469 45 51.5469C50.8155 51.5469 55.5469 46.8155 55.5469 41C55.5469 35.1845 50.8155 30.4531 45 30.4531ZM45 46.8594C41.7691 46.8594 39.1406 44.2309 39.1406 41C39.1406 37.7691 41.7691 35.1406 45 35.1406C45.6131 35.1406 45.9637 35.3588 46.1787 35.6759C46.3865 35.9824 46.4372 36.3691 46.3154 36.7188C46.2188 36.9963 46.1719 37.2466 46.1719 37.4844C46.1719 38.7767 47.2233 39.8281 48.5156 39.8281C48.7533 39.8281 49.0037 39.7812 49.2811 39.6846C49.6308 39.5629 50.017 39.6135 50.3235 39.821C50.6402 40.0353 50.8594 40.3856 50.8594 41C50.8594 44.2309 48.2309 46.8594 45 46.8594Z" fill="url(#paint3_linear_1129_47)"/>
<defs>
<linearGradient id="paint0_linear_1129_47" x1="33.5671" y1="-5.22325e-06" x2="80.1836" y2="36.855" gradientUnits="userSpaceOnUse">
<stop stop-color="#7E8FFF"/>
<stop offset="1" stop-color="#92EFFD"/>
</linearGradient>
<linearGradient id="paint1_linear_1129_47" x1="13.32" y1="12" x2="21.3583" y2="17.6475" gradientUnits="userSpaceOnUse">
<stop stop-color="#7E8FFF"/>
<stop offset="1" stop-color="#92EFFD"/>
</linearGradient>
<linearGradient id="paint2_linear_1129_47" x1="45" y1="53.8906" x2="45" y2="28.1094" gradientUnits="userSpaceOnUse">
<stop stop-color="#5558FF"/>
<stop offset="1" stop-color="#00C0FF"/>
</linearGradient>
<linearGradient id="paint3_linear_1129_47" x1="45" y1="51.5469" x2="45" y2="30.4531" gradientUnits="userSpaceOnUse">
<stop stop-color="#ADDCFF"/>
<stop offset="0.5028" stop-color="#EAF6FF"/>
<stop offset="1" stop-color="#EAF6FF"/>
</linearGradient>
</defs>
</svg>
