<svg width="89" height="79" viewBox="0 0 89 79" fill="none" xmlns="http://www.w3.org/2000/svg">
<path opacity="0.2" d="M38.7072 3.55861C42.0259 1.39562 46.3087 1.39562 49.6274 3.55861L72.0426 18.1675C74.0077 19.4483 75.4601 21.379 76.1457 23.6222L85.5001 54.2265C87.0795 59.3936 84.2687 64.8808 79.1526 66.6184L47.3831 77.4079C45.2977 78.1161 43.0369 78.1161 40.9515 77.4079L9.18199 66.6184C4.06587 64.8808 1.25515 59.3936 2.83451 54.2265L12.1889 23.6222C12.8745 21.379 14.3269 19.4483 16.292 18.1675L38.7072 3.55861Z" fill="url(#paint0_linear_1129_33)"/>
<circle cx="15" cy="19" r="7" fill="url(#paint1_linear_1129_33)"/>
<path d="M44 18C33.4809 18 24.9568 26.638 24.9568 37.1408C24.9568 42.6544 27.313 47.6273 31.0702 51.108L33.0624 53.8923C36.1594 56.0735 39.9325 57.3559 44 57.3559C48.1533 57.3559 51.9999 56.0187 55.1329 53.7529L56.9297 51.108C60.687 47.6273 63.0432 42.6544 63.0432 37.1408C63.0432 26.6218 54.5041 18 44 18Z" fill="url(#paint2_linear_1129_33)"/>
<path d="M61.6536 60.6441L56.9297 51.1081C53.5313 54.2563 48.9868 56.1841 44 56.1841C39.0131 56.1841 34.4686 54.2563 31.0702 51.1081L26.3464 60.6441C26.1111 61.1192 26.1508 61.6845 26.4504 62.1219C26.75 62.5594 27.2624 62.8007 27.7905 62.7533L33.7484 62.2165L36.8948 67.3055C37.1625 67.7385 37.6347 68.0001 38.1405 68.0001C38.1633 68.0001 38.1862 67.9996 38.2091 67.9985C38.7405 67.9737 39.2167 67.6626 39.453 67.186L43.9979 58.0204C45.3428 60.7389 47.3958 64.8843 48.5489 67.1903C48.7864 67.6654 49.2624 67.9746 49.793 67.9986C50.3234 68.0222 50.8256 67.7574 51.105 67.3055L54.2515 62.2165L60.2094 62.7533C60.7368 62.8008 61.25 62.5595 61.5496 62.122C61.8492 61.6845 61.889 61.1192 61.6536 60.6441ZM44 50.3247C51.2695 50.3247 57.1837 44.4104 57.1837 37.1409C57.1837 29.8688 51.2817 23.8595 44 23.8595C36.7278 23.8595 30.8162 29.8583 30.8162 37.1409C30.8162 44.4104 36.7305 50.3247 44 50.3247ZM37.1048 36.1051C37.6768 35.5331 38.6043 35.5331 39.1764 36.1051L42.5352 39.4639L48.8238 33.1753C49.3957 32.6033 50.3233 32.6033 50.8954 33.1753C51.4674 33.7474 51.4674 34.6749 50.8954 35.2469L43.5711 42.5712C42.9991 43.1432 42.0715 43.1433 41.4995 42.5712L37.1049 38.1767C36.5327 37.6047 36.5327 36.6771 37.1048 36.1051Z" fill="url(#paint3_linear_1129_33)"/>
<defs>
<linearGradient id="paint0_linear_1129_33" x1="34.6713" y1="-2.06962e-06" x2="80.9652" y2="38.461" gradientUnits="userSpaceOnUse">
<stop stop-color="#08B359"/>
<stop offset="1" stop-color="#F3E51A"/>
</linearGradient>
<linearGradient id="paint1_linear_1129_33" x1="13.495" y1="12" x2="21.5212" y2="17.9258" gradientUnits="userSpaceOnUse">
<stop stop-color="#08B359"/>
<stop offset="1" stop-color="#F3E51A"/>
</linearGradient>
<linearGradient id="paint2_linear_1129_33" x1="44" y1="57.3559" x2="44" y2="18" gradientUnits="userSpaceOnUse">
<stop stop-color="#08B259"/>
<stop offset="1" stop-color="#9CFFAC"/>
</linearGradient>
<linearGradient id="paint3_linear_1129_33" x1="44" y1="68.0001" x2="44" y2="23.8595" gradientUnits="userSpaceOnUse">
<stop stop-color="#C3FFE8"/>
<stop offset="0.9973" stop-color="#F0FFF4"/>
</linearGradient>
</defs>
</svg>
