<svg width="89" height="79" viewBox="0 0 89 79" fill="none" xmlns="http://www.w3.org/2000/svg">
<path opacity="0.2" d="M38.7072 3.55861C42.0259 1.39562 46.3087 1.39562 49.6274 3.55861L72.0426 18.1675C74.0077 19.4483 75.4601 21.379 76.1457 23.6222L85.5001 54.2265C87.0795 59.3936 84.2687 64.8808 79.1526 66.6184L47.3831 77.4079C45.2977 78.1161 43.0369 78.1161 40.9515 77.4079L9.18199 66.6184C4.06587 64.8808 1.25515 59.3936 2.83451 54.2265L12.1889 23.6222C12.8745 21.379 14.3269 19.4483 16.292 18.1675L38.7072 3.55861Z" fill="url(#paint0_linear_1129_47)"/>
<circle cx="15" cy="19" r="7" fill="url(#paint1_linear_1129_47)"/>
<g opacity="0.8">
<path d="M51.1096 59C49.3573 59 47.6674 58.0224 46.8534 56.3595L44.4974 51.9483L43.1609 54.4994C43.1267 54.5648 43.0878 54.6278 43.0446 54.6877C42.1675 55.9049 40.7244 56.3375 39.6559 56.3375L39.63 56.3374C38.436 56.3295 37.247 55.8172 36.3681 54.9316C35.4554 54.0119 34.9528 52.791 34.9528 51.4936V31.2627C34.9528 29.4174 35.9925 27.7883 37.666 27.0111C39.3237 26.2413 41.2188 26.486 42.6246 27.6478L52.9174 35.3128C53.6096 35.8282 53.7528 36.8071 53.2374 37.4992C52.722 38.1913 51.7431 38.3345 51.051 37.8191L40.7235 30.1283C40.6979 30.1092 40.6729 30.0894 40.6486 30.0688C39.9418 29.4719 39.1947 29.7469 38.9823 29.8455C38.7701 29.944 38.0779 30.3373 38.0779 31.2627V51.4937C38.0779 52.5005 38.9068 53.2076 39.6508 53.2125H39.6579C39.962 53.2125 40.2963 53.0865 40.4629 52.9158L43.1002 47.8815C43.2321 47.6298 43.43 47.4189 43.6728 47.2713C43.9156 47.1238 44.194 47.0452 44.4781 47.0441H44.4843C44.7674 47.0441 45.0451 47.1209 45.2879 47.2665C45.5306 47.412 45.7293 47.6208 45.8626 47.8705L49.6244 54.9139C49.6351 54.9338 49.6452 54.9538 49.6549 54.9741C50.0299 55.7556 50.9751 56.0956 51.7617 55.7314C51.9543 55.6431 52.1272 55.5169 52.2702 55.3605C52.4131 55.204 52.5232 55.0204 52.5938 54.8206C52.7346 54.4268 52.7165 54.0036 52.5438 53.6245L48.7472 46.8685C48.6135 46.6308 48.5444 46.3622 48.5468 46.0894C48.5492 45.8167 48.6229 45.5493 48.7607 45.3139C48.8984 45.0785 49.0954 44.8832 49.332 44.7476C49.5686 44.6119 49.8366 44.5406 50.1094 44.5406H55.4663C56.3729 44.4943 56.7348 43.7804 56.8247 43.561C56.9169 43.3361 57.1673 42.5486 56.5203 41.8625C55.9283 41.2346 55.9574 40.2457 56.5852 39.6537C57.2131 39.0616 58.202 39.0909 58.794 39.7187C60.076 41.0785 60.4296 43.0046 59.7166 44.7455C59.0075 46.4767 57.4141 47.5952 55.5583 47.6645C55.539 47.6653 55.5195 47.6656 55.5 47.6656H52.7798L55.2951 52.1417C55.3105 52.1692 55.3252 52.1971 55.339 52.2254C55.8961 53.3744 55.9663 54.6694 55.5368 55.8718C55.1073 57.0743 54.2326 58.0318 53.0737 58.5678C52.4581 58.8526 51.7879 59.0001 51.1096 59ZM36.7196 25.1361C37.4763 24.7212 37.7532 23.7714 37.3383 23.0148L36.0102 20.5929C35.5952 19.8362 34.6456 19.5593 33.8889 19.9742C33.1322 20.3891 32.8552 21.3389 33.2701 22.0955L34.5983 24.5174C34.8825 25.0357 35.4175 25.3289 35.9697 25.3289C36.2236 25.3289 36.4813 25.2669 36.7196 25.1361ZM33.4154 28.6894C33.7612 27.8987 33.4007 26.9774 32.6101 26.6315L30.1101 25.5378C29.3195 25.1918 28.3982 25.5525 28.0523 26.343C27.7064 27.1336 28.067 28.055 28.8575 28.4008L31.3575 29.4946C31.5547 29.5812 31.7677 29.6259 31.983 29.626C32.585 29.6259 33.1587 29.2761 33.4154 28.6894ZM43.1538 23.6352L44.0132 21.0571C44.2861 20.2384 43.8437 19.3535 43.025 19.0807C42.2066 18.8076 41.3214 19.2502 41.0486 20.0689L40.1892 22.647C39.9163 23.4657 40.3587 24.3506 41.1774 24.6235C41.3413 24.6781 41.5079 24.7041 41.6717 24.7041C42.3259 24.7041 42.9356 24.2899 43.1538 23.6352ZM47.289 27.5999L49.3984 26.0374C50.0919 25.5237 50.2376 24.5452 49.724 23.8517C49.2103 23.1583 48.2317 23.0126 47.5383 23.5262L45.4289 25.0887C44.7355 25.6024 44.5898 26.5809 45.1034 27.2743C45.4099 27.6882 45.882 27.9069 46.3602 27.9069C46.6834 27.9069 47.0094 27.807 47.289 27.5999ZM30.2204 36.3889L32.5642 35.4514C33.3655 35.1309 33.7551 34.2215 33.4347 33.4203C33.1141 32.619 32.2047 32.2293 31.4036 32.5499L29.0599 33.4874C28.2586 33.8078 27.8689 34.7172 28.1894 35.5184C28.4338 36.1294 29.0205 36.5011 29.6406 36.5011C29.8338 36.5011 30.0301 36.465 30.2204 36.3889Z" fill="#7B68EE"/>
</g>
<defs>
<linearGradient id="paint0_linear_1129_47" x1="33.5671" y1="-5.22325e-06" x2="80.1836" y2="36.855" gradientUnits="userSpaceOnUse">
<stop stop-color="#7E8FFF"/>
<stop offset="1" stop-color="#92EFFD"/>
</linearGradient>
<linearGradient id="paint1_linear_1129_47" x1="13.32" y1="12" x2="21.3583" y2="17.6475" gradientUnits="userSpaceOnUse">
<stop stop-color="#7E8FFF"/>
<stop offset="1" stop-color="#92EFFD"/>
</linearGradient>
</defs>
</svg>
