<svg width="89" height="79" viewBox="0 0 89 79" fill="none" xmlns="http://www.w3.org/2000/svg">
<path opacity="0.2" d="M38.7072 3.55861C42.0259 1.39562 46.3087 1.39562 49.6274 3.55861L72.0426 18.1675C74.0077 19.4483 75.4601 21.379 76.1457 23.6222L85.5001 54.2265C87.0795 59.3936 84.2687 64.8808 79.1526 66.6184L47.3831 77.4079C45.2977 78.1161 43.0369 78.1161 40.9515 77.4079L9.18199 66.6184C4.06587 64.8808 1.25515 59.3936 2.83451 54.2265L12.1889 23.6222C12.8745 21.379 14.3269 19.4483 16.292 18.1675L38.7072 3.55861Z" fill="url(#paint0_linear_1129_33)"/>
<circle cx="15" cy="19" r="7" fill="url(#paint1_linear_1129_33)"/>
<g clip-path="url(#clip0_1129_33)">
<path d="M30.1973 25.4697C31.7012 25.4697 32.9248 26.6934 32.9248 28.1973C32.9248 29.7012 31.7012 30.9248 30.1973 30.9248C28.6934 30.9248 27.4697 29.7012 27.4697 28.1973C27.4697 26.6865 28.6865 25.4697 30.1973 25.4697ZM30.1973 24C27.8799 24 26 25.8799 26 28.1973C26 30.5146 27.8799 32.3945 30.1973 32.3945C32.5146 32.3945 34.3945 30.5146 34.3945 28.1973C34.3877 25.8799 32.5146 24 30.1973 24ZM43.5 25.4697C45.0039 25.4697 46.2275 26.6934 46.2275 28.1973C46.2275 29.7012 45.0039 30.9248 43.5 30.9248C41.9961 30.9248 40.7725 29.7012 40.7725 28.1973C40.7725 26.6865 41.9961 25.4697 43.5 25.4697ZM43.5 24C41.1826 24 39.3027 25.8799 39.3027 28.1973C39.3027 30.5146 41.1826 32.3945 43.5 32.3945C45.8174 32.3945 47.6973 30.5146 47.6973 28.1973C47.6973 25.8799 45.8174 24 43.5 24ZM56.8027 25.4697C58.3066 25.4697 59.5303 26.6934 59.5303 28.1973C59.5303 29.7012 58.3066 30.9248 56.8027 30.9248C55.2988 30.9248 54.0752 29.7012 54.0752 28.1973C54.082 26.6865 55.2988 25.4697 56.8027 25.4697ZM56.8027 24C54.4854 24 52.6055 25.8799 52.6055 28.1973C52.6055 30.5146 54.4854 32.3945 56.8027 32.3945C59.1201 32.3945 61 30.5146 61 28.1973C61 25.8799 59.1201 24 56.8027 24ZM30.1973 38.7725C31.7012 38.7725 32.9248 39.9961 32.9248 41.5C32.9248 43.0039 31.7012 44.2275 30.1973 44.2275C28.6934 44.2275 27.4697 43.0039 27.4697 41.5C27.4697 39.9961 28.6865 38.7725 30.1973 38.7725ZM30.1973 37.3027C27.8799 37.3027 26 39.1826 26 41.5C26 43.8174 27.8799 45.6973 30.1973 45.6973C32.5146 45.6973 34.3945 43.8174 34.3945 41.5C34.3877 39.1826 32.5146 37.3027 30.1973 37.3027ZM43.5 38.7725C45.0039 38.7725 46.2275 39.9961 46.2275 41.5C46.2275 43.0039 45.0039 44.2275 43.5 44.2275C41.9961 44.2275 40.7725 43.0039 40.7725 41.5C40.7725 39.9961 41.9961 38.7725 43.5 38.7725ZM43.5 37.3027C41.1826 37.3027 39.3027 39.1826 39.3027 41.5C39.3027 43.8174 41.1826 45.6973 43.5 45.6973C45.8174 45.6973 47.6973 43.8174 47.6973 41.5C47.6973 39.1826 45.8174 37.3027 43.5 37.3027ZM56.8027 38.7725C58.3066 38.7725 59.5303 39.9961 59.5303 41.5C59.5303 43.0039 58.3066 44.2275 56.8027 44.2275C55.2988 44.2275 54.0752 43.0039 54.0752 41.5C54.082 39.9961 55.2988 38.7725 56.8027 38.7725ZM56.8027 37.3027C54.4854 37.3027 52.6055 39.1826 52.6055 41.5C52.6055 43.8174 54.4854 45.6973 56.8027 45.6973C59.1201 45.6973 61 43.8174 61 41.5C61 39.1826 59.1201 37.3027 56.8027 37.3027ZM30.1973 52.0752C31.7012 52.0752 32.9248 53.2988 32.9248 54.8027C32.9248 56.3066 31.7012 57.5303 30.1973 57.5303C28.6934 57.5303 27.4697 56.3066 27.4697 54.8027C27.4697 53.2988 28.6865 52.082 30.1973 52.0752ZM30.1973 50.6123C27.8799 50.6123 26 52.4854 26 54.8027C26 57.1201 27.8799 59 30.1973 59C32.5146 59 34.3945 57.1201 34.3945 54.8027C34.3877 52.4854 32.5146 50.6123 30.1973 50.6123ZM43.5 52.0752C45.0039 52.0752 46.2275 53.2988 46.2275 54.8027C46.2275 56.3066 45.0039 57.5303 43.5 57.5303C41.9961 57.5303 40.7725 56.3066 40.7725 54.8027C40.7725 53.2988 41.9961 52.082 43.5 52.0752ZM43.5 50.6123C41.1826 50.6123 39.3027 52.4922 39.3027 54.8096C39.3027 57.127 41.1826 59 43.5 59C45.8174 59 47.6973 57.1201 47.6973 54.8027C47.6973 52.4854 45.8174 50.6123 43.5 50.6123ZM56.8027 52.0752C58.3066 52.0752 59.5303 53.2988 59.5303 54.8027C59.5303 56.3066 58.3066 57.5303 56.8027 57.5303C55.2988 57.5303 54.0752 56.3066 54.0752 54.8027C54.082 53.2988 55.2988 52.082 56.8027 52.0752ZM56.8027 50.6123C54.4854 50.6123 52.6055 52.4922 52.6055 54.8096C52.6055 57.127 54.4854 59.0068 56.8027 59.0068C59.1201 59.0068 61 57.127 61 54.8096C61 52.4854 59.1201 50.6123 56.8027 50.6123Z" fill="#08B259"/>
</g>
<defs>
<linearGradient id="paint0_linear_1129_33" x1="34.6713" y1="-2.06962e-06" x2="80.9652" y2="38.461" gradientUnits="userSpaceOnUse">
<stop stop-color="#08B359"/>
<stop offset="1" stop-color="#F3E51A"/>
</linearGradient>
<linearGradient id="paint1_linear_1129_33" x1="13.495" y1="12" x2="21.5212" y2="17.9258" gradientUnits="userSpaceOnUse">
<stop stop-color="#08B359"/>
<stop offset="1" stop-color="#F3E51A"/>
</linearGradient>
<clipPath id="clip0_1129_33">
<rect width="35" height="35" fill="white" transform="translate(26 24)"/>
</clipPath>
</defs>
</svg>
