<svg width="89" height="79" viewBox="0 0 89 79" fill="none" xmlns="http://www.w3.org/2000/svg">
<path opacity="0.2" d="M38.7072 3.55861C42.0259 1.39562 46.3087 1.39562 49.6274 3.55861L72.0426 18.1675C74.0077 19.4483 75.4601 21.379 76.1457 23.6222L85.5001 54.2265C87.0795 59.3936 84.2687 64.8808 79.1526 66.6184L47.3831 77.4079C45.2977 78.1161 43.0369 78.1161 40.9515 77.4079L9.18199 66.6184C4.06587 64.8808 1.25515 59.3936 2.83451 54.2265L12.1889 23.6222C12.8745 21.379 14.3269 19.4483 16.292 18.1675L38.7072 3.55861Z" fill="url(#paint0_linear_1129_10)"/>
<circle cx="15" cy="19" r="7" fill="url(#paint1_linear_1129_10)"/>
<g clip-path="url(#clip0_1129_10)">
<path d="M33.2325 51.4913C33.4434 51.7346 33.7006 51.9334 33.9893 52.0761C34.2779 52.2188 34.592 52.3025 34.9134 52.3224C35.2347 52.3423 35.5568 52.2979 35.8608 52.1919C36.1648 52.0859 36.4446 51.9203 36.6839 51.7049C36.9232 51.4894 37.1171 51.2285 37.2544 50.9372C37.3916 50.646 37.4694 50.3303 37.4833 50.0086C37.4971 49.687 37.4467 49.3658 37.3349 49.0638C37.2232 48.7618 37.0524 48.4852 36.8325 48.25L30.305 41L36.83 33.75C37.2593 33.2723 37.4817 32.6438 37.4481 32.0024C37.4146 31.361 37.128 30.7591 36.6512 30.3288C36.4158 30.1146 36.1399 29.9497 35.8398 29.8436C35.5397 29.7376 35.2215 29.6926 34.9037 29.7113C34.5862 29.7268 34.2748 29.8052 33.9878 29.9419C33.7007 30.0786 33.4435 30.2708 33.2312 30.5075L25.2475 39.38C24.8463 39.8245 24.6243 40.4019 24.6243 41.0006C24.6243 41.5994 24.8463 42.1768 25.2475 42.6213L33.2325 51.4913ZM54.7675 30.5075C54.3372 30.0311 53.7355 29.7448 53.0944 29.7112C52.4533 29.6777 51.8251 29.8998 51.3475 30.3288C50.871 30.7593 50.5846 31.3612 50.5511 32.0025C50.5176 32.6438 50.7397 33.2722 51.1687 33.75L57.6937 41L51.1687 48.25C50.7531 48.7295 50.5422 49.353 50.5814 49.9864C50.6206 50.6198 50.9067 51.2125 51.3783 51.6371C51.8499 52.0617 52.4693 52.2843 53.1033 52.257C53.7373 52.2297 54.3353 51.9548 54.7687 51.4913L62.7525 42.62C63.1536 42.1758 63.3756 41.5985 63.3756 41C63.3756 40.4015 63.1536 39.8243 62.7525 39.38L54.7675 30.5075ZM48.2425 23.72H48.24C47.6167 23.5694 46.9591 23.6715 46.4108 24.0041C45.8626 24.3367 45.4682 24.8726 45.3137 25.495L37.9837 55.3513C37.8969 55.7078 37.8921 56.0794 37.9698 56.4381C38.0474 56.7967 38.2054 57.1331 38.4319 57.4218C38.6584 57.7105 38.9475 57.9441 39.2774 58.1049C39.6072 58.2656 39.9693 58.3495 40.3362 58.35C41.4537 58.35 42.42 57.5913 42.6862 56.505L50.0162 26.6488C50.1683 26.0252 50.067 25.3668 49.7346 24.8179C49.4021 24.2689 48.8655 23.8741 48.2425 23.72Z" fill="#FF5F6D"/>
</g>
<defs>
<linearGradient id="paint0_linear_1129_10" x1="33.5671" y1="-3.62914e-06" x2="80.4549" y2="35.3586" gradientUnits="userSpaceOnUse">
<stop stop-color="#FF5F6D"/>
<stop offset="1" stop-color="#FFC371"/>
</linearGradient>
<linearGradient id="paint1_linear_1129_10" x1="13.32" y1="12" x2="21.3644" y2="17.391" gradientUnits="userSpaceOnUse">
<stop stop-color="#FF5F6D"/>
<stop offset="1" stop-color="#FFC371"/>
</linearGradient>
<clipPath id="clip0_1129_10">
<rect width="40" height="36" fill="white" transform="translate(24 23)"/>
</clipPath>
</defs>
</svg>
