<svg width="89" height="79" viewBox="0 0 89 79" fill="none" xmlns="http://www.w3.org/2000/svg">
<path opacity="0.2" d="M38.7072 3.55861C42.0259 1.39562 46.3087 1.39562 49.6274 3.55861L72.0426 18.1675C74.0077 19.4483 75.4601 21.379 76.1457 23.6222L85.5001 54.2265C87.0795 59.3936 84.2687 64.8808 79.1526 66.6184L47.3831 77.4079C45.2977 78.1161 43.0369 78.1161 40.9515 77.4079L9.18199 66.6184C4.06587 64.8808 1.25515 59.3936 2.83451 54.2265L12.1889 23.6222C12.8745 21.379 14.3269 19.4483 16.292 18.1675L38.7072 3.55861Z" fill="url(#paint0_linear_1129_47)"/>
<circle cx="15" cy="19" r="7" fill="url(#paint1_linear_1129_47)"/>
<path d="M45 24.8125C44.7562 24.8125 44.5125 24.8594 44.2891 24.9531L24.9922 33.8516C24.5859 34.0391 24.5859 34.3328 24.9922 34.5203L44.2891 43.4219C44.5125 43.5156 44.7562 43.5625 45 43.5625C45.2438 43.5625 45.4875 43.5156 45.7109 43.4219L65.0078 34.5203C65.4141 34.3328 65.4141 34.0391 65.0078 33.8516L45.7109 24.9531C45.4856 24.8597 45.2439 24.8119 45 24.8125ZM45 28.0656L58.2688 34.1875L45 40.3094L31.7312 34.1875L45 28.0656ZM27.5625 39.5734L24.9922 40.8578C24.5859 41.0609 24.5859 41.375 24.9922 41.5781L44.2891 51.2219C44.5124 51.3231 44.7548 51.3755 45 51.3755C45.2452 51.3755 45.4876 51.3231 45.7109 51.2219L65.0078 41.5781C65.4141 41.375 65.4141 41.0625 65.0078 40.8594L62.4375 39.5734L45.7109 47.9328C45.4876 48.0341 45.2452 48.0864 45 48.0864C44.7548 48.0864 44.5124 48.0341 44.2891 47.9328L27.5625 39.5734ZM27.5625 47.3859L24.9922 48.6703C24.5859 48.8734 24.5859 49.1875 24.9922 49.3906L44.2891 59.0344C44.5124 59.1356 44.7548 59.188 45 59.188C45.2452 59.188 45.4876 59.1356 45.7109 59.0344L65.0078 49.3906C65.4141 49.1875 65.4141 48.875 65.0078 48.6719L62.4375 47.3859L45.7109 55.7453C45.4876 55.8466 45.2452 55.8989 45 55.8989C44.7548 55.8989 44.5124 55.8466 44.2891 55.7453L27.5625 47.3859Z" fill="#7E8FFF"/>
<defs>
<linearGradient id="paint0_linear_1129_47" x1="33.5671" y1="-5.22325e-06" x2="80.1836" y2="36.855" gradientUnits="userSpaceOnUse">
<stop stop-color="#7E8FFF"/>
<stop offset="1" stop-color="#92EFFD"/>
</linearGradient>
<linearGradient id="paint1_linear_1129_47" x1="13.32" y1="12" x2="21.3583" y2="17.6475" gradientUnits="userSpaceOnUse">
<stop stop-color="#7E8FFF"/>
<stop offset="1" stop-color="#92EFFD"/>
</linearGradient>
</defs>
</svg>
