<svg width="89" height="79" viewBox="0 0 89 79" fill="none" xmlns="http://www.w3.org/2000/svg">
<path opacity="0.2" d="M38.7072 3.55861C42.0259 1.39562 46.3087 1.39562 49.6274 3.55861L72.0426 18.1675C74.0077 19.4483 75.4601 21.379 76.1457 23.6222L85.5001 54.2265C87.0795 59.3936 84.2687 64.8808 79.1526 66.6184L47.3831 77.4079C45.2977 78.1161 43.0369 78.1161 40.9515 77.4079L9.18199 66.6184C4.06587 64.8808 1.25515 59.3936 2.83451 54.2265L12.1889 23.6222C12.8745 21.379 14.3269 19.4483 16.292 18.1675L38.7072 3.55861Z" fill="url(#paint0_linear_1175_1436)"/>
<circle cx="15" cy="19" r="7" fill="url(#paint1_linear_1175_1436)"/>
<g clip-path="url(#clip0_1175_1436)">
<path d="M50.6667 23C50.313 23 49.9739 23.1405 49.7239 23.3905C49.4738 23.6406 49.3333 23.9797 49.3333 24.3333C49.3333 28.2653 45.8893 29.6667 42.6667 29.6667H33.3333C31.9188 29.6667 30.5623 30.2286 29.5621 31.2288C28.5619 32.229 28 33.5855 28 35V37.6667C28.0029 38.465 28.1859 39.2524 28.5355 39.9701C28.885 40.6878 29.392 41.3174 30.0187 41.812L34.7813 52.4413C35.1201 53.2028 35.6722 53.8497 36.371 54.3038C37.0698 54.7579 37.8853 54.9998 38.7187 55C39.3817 54.9996 40.0342 54.8333 40.6166 54.5164C41.199 54.1994 41.693 53.7418 42.0534 53.1853C42.4138 52.6287 42.6294 51.9909 42.6803 51.3297C42.7313 50.6686 42.6162 50.0052 42.3453 49.4L39.412 43H42.6667C45.8893 43 49.3333 44.4013 49.3333 48.3333C49.3333 48.687 49.4738 49.0261 49.7239 49.2761C49.9739 49.5262 50.313 49.6667 50.6667 49.6667C51.0203 49.6667 51.3594 49.5262 51.6095 49.2761C51.8595 49.0261 52 48.687 52 48.3333V24.3333C52 23.9797 51.8595 23.6406 51.6095 23.3905C51.3594 23.1405 51.0203 23 50.6667 23ZM39.916 50.492C40.0043 50.6914 40.0415 50.9098 40.0241 51.1272C40.0067 51.3446 39.9353 51.5543 39.8164 51.7372C39.6975 51.92 39.5348 52.0703 39.3431 52.1744C39.1514 52.2785 38.9368 52.3332 38.7187 52.3333C38.4005 52.3331 38.0893 52.2405 37.8228 52.0668C37.5563 51.893 37.3459 51.6457 37.2173 51.3547L33.4733 43H36.4787L39.916 50.492ZM49.3333 42.4667C47.4284 40.9989 45.0698 40.2442 42.6667 40.3333H33.3333C32.6261 40.3333 31.9478 40.0524 31.4477 39.5523C30.9476 39.0522 30.6667 38.3739 30.6667 37.6667V35C30.6667 34.2928 30.9476 33.6145 31.4477 33.1144C31.9478 32.6143 32.6261 32.3333 33.3333 32.3333H42.6667C45.069 32.4244 47.4275 31.672 49.3333 30.2067V42.4667ZM59.8667 43.6027C59.7885 43.7594 59.6801 43.8992 59.5478 44.0141C59.4156 44.129 59.262 44.2167 59.0958 44.2721C58.9296 44.3276 58.7541 44.3498 58.5794 44.3374C58.4046 44.325 58.234 44.2783 58.0773 44.2L55.4107 42.8667C55.0942 42.7086 54.8534 42.4313 54.7414 42.0957C54.6294 41.7601 54.6553 41.3938 54.8133 41.0773C54.9714 40.7608 55.2487 40.5201 55.5843 40.4081C55.9199 40.2961 56.2862 40.3219 56.6027 40.48L59.2693 41.8133C59.5842 41.9713 59.8238 42.2475 59.9357 42.5815C60.0476 42.9155 60.0228 43.2802 59.8667 43.596V43.6027ZM54.8133 31.6027C54.735 31.446 54.6883 31.2754 54.6759 31.1006C54.6635 30.9259 54.6857 30.7504 54.7412 30.5842C54.7967 30.418 54.8844 30.2644 54.9992 30.1322C55.1141 29.9999 55.2539 29.8915 55.4107 29.8133L58.0773 28.48C58.3938 28.3219 58.7601 28.2961 59.0957 28.4081C59.4313 28.5201 59.7086 28.7608 59.8667 29.0773C60.0247 29.3938 60.0506 29.7601 59.9386 30.0957C59.8266 30.4313 59.5858 30.7086 59.2693 30.8667L56.6027 32.2C56.446 32.2783 56.2754 32.325 56.1006 32.3374C55.9259 32.3498 55.7504 32.3276 55.5842 32.2721C55.418 32.2167 55.2644 32.129 55.1322 32.0141C54.9999 31.8992 54.8915 31.7594 54.8133 31.6027ZM54.6667 36.3333C54.6667 35.9797 54.8071 35.6406 55.0572 35.3905C55.3072 35.1405 55.6464 35 56 35H58.6667C59.0203 35 59.3594 35.1405 59.6095 35.3905C59.8595 35.6406 60 35.9797 60 36.3333C60 36.687 59.8595 37.0261 59.6095 37.2761C59.3594 37.5262 59.0203 37.6667 58.6667 37.6667H56C55.6464 37.6667 55.3072 37.5262 55.0572 37.2761C54.8071 37.0261 54.6667 36.687 54.6667 36.3333Z" fill="url(#paint2_linear_1175_1436)"/>
</g>
<defs>
<linearGradient id="paint0_linear_1175_1436" x1="34.6713" y1="-2.06962e-06" x2="80.9652" y2="38.461" gradientUnits="userSpaceOnUse">
<stop stop-color="#088AB3"/>
<stop offset="1" stop-color="#1A3DF3"/>
</linearGradient>
<linearGradient id="paint1_linear_1175_1436" x1="13.495" y1="12" x2="21.5212" y2="17.9258" gradientUnits="userSpaceOnUse">
<stop stop-color="#088AB3"/>
<stop offset="1" stop-color="#1A3DF3"/>
</linearGradient>
<linearGradient id="paint2_linear_1175_1436" x1="40.5628" y1="23" x2="58.9097" y2="36.5486" gradientUnits="userSpaceOnUse">
<stop stop-color="#088AB3"/>
<stop offset="1" stop-color="#1A3DF3"/>
</linearGradient>
<clipPath id="clip0_1175_1436">
<rect width="32" height="32" fill="white" transform="translate(28 23)"/>
</clipPath>
</defs>
</svg>
