<svg width="89" height="79" viewBox="0 0 89 79" fill="none" xmlns="http://www.w3.org/2000/svg">
<path opacity="0.2" d="M38.7072 3.55861C42.0259 1.39562 46.3087 1.39562 49.6274 3.55861L72.0426 18.1675C74.0077 19.4483 75.4601 21.379 76.1457 23.6222L85.5001 54.2265C87.0795 59.3936 84.2687 64.8808 79.1526 66.6184L47.3831 77.4079C45.2977 78.1161 43.0369 78.1161 40.9515 77.4079L9.18199 66.6184C4.06587 64.8808 1.25515 59.3936 2.83451 54.2265L12.1889 23.6222C12.8745 21.379 14.3269 19.4483 16.292 18.1675L38.7072 3.55861Z" fill="url(#paint0_linear_1_1959)"/>
<circle cx="15" cy="19" r="7" fill="url(#paint1_linear_1_1959)"/>
<g clip-path="url(#clip0_1_1959)">
<path d="M51.992 26.0481C50.3645 24.5941 48.3714 23.6115 46.2271 23.206C44.0828 22.8004 41.8685 22.9873 39.8225 23.7465C37.7765 24.5057 35.9762 25.8085 34.6155 27.5147C33.2548 29.2208 32.3851 31.2658 32.1 33.4294C31.844 35.3265 32.0487 37.2574 32.6969 39.0586C33.3452 40.8599 34.4178 42.4785 35.824 43.7774C36.6936 44.54 37.3953 45.4749 37.8846 46.5229C38.374 47.5709 38.6403 48.7091 38.6667 49.8654V50.0801C38.6681 51.3845 39.1869 52.6351 40.1092 53.5575C41.0316 54.4798 42.2822 54.9986 43.5867 55.0001H44.4133C45.7178 54.9986 46.9684 54.4798 47.8907 53.5575C48.8131 52.6351 49.3319 51.3845 49.3333 50.0801V49.3481C49.3533 48.326 49.5938 47.3203 50.0384 46.3998C50.483 45.4793 51.1212 44.6657 51.9093 44.0147C53.1874 42.8953 54.2131 41.5171 54.9184 39.9714C55.6236 38.4256 55.9924 36.7477 56.0002 35.0487C56.008 33.3497 55.6547 31.6684 54.9637 30.1163C54.2727 28.5641 53.2598 27.1765 51.992 26.0454V26.0481ZM44.4133 52.3334H43.5867C42.9892 52.3327 42.4165 52.0951 41.9941 51.6726C41.5717 51.2502 41.334 50.6775 41.3333 50.0801C41.3333 50.0801 41.324 49.7334 41.3227 49.6667H46.6667V50.0801C46.6659 50.6775 46.4283 51.2502 46.0059 51.6726C45.5835 52.0951 45.0107 52.3327 44.4133 52.3334ZM50.1467 42.0121C48.6286 43.3288 47.5322 45.0637 46.9947 47.0001H45.3333V37.4214C46.1105 37.1466 46.7839 36.6384 47.2612 35.9663C47.7385 35.2942 47.9966 34.4911 48 33.6667C48 33.3131 47.8595 32.974 47.6095 32.7239C47.3594 32.4739 47.0203 32.3334 46.6667 32.3334C46.313 32.3334 45.9739 32.4739 45.7238 32.7239C45.4738 32.974 45.3333 33.3131 45.3333 33.6667C45.3333 34.0203 45.1928 34.3595 44.9428 34.6095C44.6927 34.8596 44.3536 35.0001 44 35.0001C43.6464 35.0001 43.3072 34.8596 43.0572 34.6095C42.8071 34.3595 42.6667 34.0203 42.6667 33.6667C42.6667 33.3131 42.5262 32.974 42.2761 32.7239C42.0261 32.4739 41.6869 32.3334 41.3333 32.3334C40.9797 32.3334 40.6406 32.4739 40.3905 32.7239C40.1405 32.974 40 33.3131 40 33.6667C40.0034 34.4911 40.2614 35.2942 40.7388 35.9663C41.2161 36.6384 41.8894 37.1466 42.6667 37.4214V47.0001H40.904C40.3026 45.0123 39.1748 43.2243 37.64 41.8254C36.3373 40.6115 35.409 39.0503 34.9646 37.326C34.5203 35.6018 34.5784 33.7863 35.1323 32.094C35.6861 30.4017 36.7124 28.9032 38.0902 27.7752C39.468 26.6472 41.1397 25.9369 42.908 25.7281C43.2746 25.6871 43.6431 25.6667 44.012 25.6667C46.3021 25.6599 48.5129 26.5049 50.2147 28.0374C51.2009 28.9169 51.989 29.9959 52.5266 31.203C53.0642 32.4101 53.3391 33.7177 53.333 35.0391C53.327 36.3606 53.0401 37.6656 52.4915 38.8677C51.9428 40.0699 51.1449 41.1417 50.1507 42.0121H50.1467Z" fill="url(#paint2_linear_1_1959)"/>
</g>
<defs>
<linearGradient id="paint0_linear_1_1959" x1="33.5671" y1="-3.62914e-06" x2="80.4549" y2="35.3586" gradientUnits="userSpaceOnUse">
<stop stop-color="#392D69"/>
<stop offset="1" stop-color="#B57BEE"/>
</linearGradient>
<linearGradient id="paint1_linear_1_1959" x1="13.32" y1="12" x2="21.3644" y2="17.391" gradientUnits="userSpaceOnUse">
<stop stop-color="#392D69"/>
<stop offset="1" stop-color="#B57BEE"/>
</linearGradient>
<linearGradient id="paint2_linear_1_1959" x1="41.1157" y1="22.9969" x2="57.0728" y2="31.0189" gradientUnits="userSpaceOnUse">
<stop stop-color="#392D69"/>
<stop offset="1" stop-color="#B57BEE"/>
</linearGradient>
<clipPath id="clip0_1_1959">
<rect width="32" height="32" fill="white" transform="translate(28 23)"/>
</clipPath>
</defs>
</svg>
