<svg version="1.2" xmlns="http://www.w3.org/2000/svg" viewBox="0 0 80 80" width="80" height="80"><defs><linearGradient id="P" gradientUnits="userSpaceOnUse"/><linearGradient id="g1" x2="1" href="#P" gradientTransform="matrix(45.933,32.272,-23.54,33.505,30.4,0)"><stop stop-color="#7e8fff"/><stop offset="1" stop-color="#92effd"/></linearGradient><linearGradient id="g2" x2="1" href="#P" gradientTransform="matrix(45.933,32.272,-31.266,44.502,30.4,0)"><stop stop-color="#7e8fff"/><stop offset="1" stop-color="#92effd"/></linearGradient><linearGradient id="g3" x2="1" href="#P" gradientTransform="matrix(8.612,6.051,-6.051,8.612,13.7,4)"><stop stop-color="#7e8fff"/><stop offset="1" stop-color="#92effd"/></linearGradient><linearGradient id="g4" x2="1" href="#P" gradientTransform="matrix(16.113,8.492,-10.634,20.177,37.116,23.997)"><stop stop-color="#7e8fff"/><stop offset="1" stop-color="#92effd"/></linearGradient></defs><style>.a{fill:url(#g1)}.b{fill:url(#g2)}.c{fill:url(#g3)}.d{fill:url(#g4)}</style><path class="a" d="m12.8 67.2c-0.6 0.6-0.6 1.6 0 2.1 3.5 3.3 7.5 5.8 11.9 7.7 4.8 2 10 3 15.3 3 5.3 0 10.5-1 15.3-3 4.4-1.9 8.4-4.4 11.9-7.7 0.6-0.5 0.6-1.5 0-2.1-0.6-0.6-1.5-0.6-2.2 0-3.2 2.9-6.8 5.3-10.9 6.9-4.4 1.9-9.2 2.9-14.1 2.9-4.9 0-9.7-1-14.1-2.9-4.1-1.6-7.7-4-10.9-6.9-0.7-0.6-1.6-0.6-2.2 0z"/><path class="b" d="m71.2 62.5c0.7 0.5 1.7 0.3 2.1-0.4 3.8-5.7 6.1-12.3 6.6-19.2 0.5-7.3-1-14.7-4.4-21.2-3.3-6.6-8.5-12.1-14.8-15.9-6.3-3.8-13.5-5.8-20.9-5.8-7.4 0-14.6 2.1-20.9 6-6.2 3.9-11.3 9.4-14.6 16-3.4 6.6-4.8 14-4.2 21.4 0.6 6.8 2.9 13.4 6.8 19 0.5 0.7 1.4 0.9 2.1 0.4 0.7-0.5 0.8-1.5 0.3-2.2-3.5-5.2-5.6-11.2-6.1-17.5-0.6-6.8 0.7-13.6 3.8-19.7 3-6.1 7.7-11.2 13.5-14.8 5.8-3.6 12.5-5.5 19.3-5.6 6.8 0 13.5 1.9 19.3 5.4 5.9 3.5 10.6 8.6 13.7 14.7 3.2 6 4.6 12.8 4.1 19.6-0.5 6.3-2.6 12.4-6 17.6-0.5 0.7-0.3 1.7 0.3 2.2z"/><path class="c" d="m8 11.5c0-4.1 3.4-7.5 7.5-7.5 4.1 0 7.5 3.4 7.5 7.5 0 4.1-3.4 7.5-7.5 7.5-4.1 0-7.5-3.4-7.5-7.5z"/><path fill-rule="evenodd" class="d" d="m48 27c1.3 1.2 2.3 2.6 3 4.1 0.7 1.6 1 3.2 1 4.9 0 1.7-0.4 3.4-1.1 5-0.7 1.5-1.7 2.9-3 4-0.8 0.7-1.4 1.5-1.9 2.4-0.4 0.9-0.6 1.9-0.7 2.9v0.8c0 1.3-0.5 2.5-1.4 3.5-0.9 0.9-2.2 1.4-3.5 1.4h-0.8c-1.3 0-2.6-0.5-3.5-1.4-0.9-1-1.4-2.2-1.4-3.5v-0.2c-0.1-1.2-0.3-2.3-0.8-3.4-0.5-1-1.2-2-2.1-2.7-1.4-1.3-2.5-2.9-3.1-4.7-0.7-1.8-0.9-3.8-0.6-5.7 0.3-2.1 1.2-4.2 2.5-5.9 1.4-1.7 3.2-3 5.2-3.8 2.1-0.7 4.3-0.9 6.4-0.5 2.2 0.4 4.2 1.4 5.8 2.8zm-6 25.7c0.4-0.4 0.7-1 0.7-1.6v-0.4h-5.4c0 0 0 0.4 0 0.4 0 0.6 0.3 1.2 0.7 1.6 0.4 0.4 1 0.6 1.6 0.6h0.8c0.6 0 1.2-0.2 1.6-0.6zm4.2-9.7c0.9-0.9 1.7-1.9 2.3-3.1 0.5-1.2 0.8-2.5 0.8-3.9 0-1.3-0.2-2.6-0.8-3.8-0.5-1.2-1.3-2.3-2.3-3.2-1.7-1.5-3.9-2.3-6.2-2.3q-0.5 0-1.1 0c-1.8 0.2-3.4 0.9-4.8 2.1-1.4 1.1-2.4 2.6-3 4.3-0.5 1.7-0.6 3.5-0.1 5.2 0.4 1.8 1.3 3.3 2.6 4.5 1.6 1.4 2.7 3.2 3.3 5.2h1.8v-9.6c-0.8-0.3-1.5-0.8-2-1.4-0.4-0.7-0.7-1.5-0.7-2.3 0-0.4 0.1-0.7 0.4-1 0.2-0.2 0.6-0.4 0.9-0.4 0.4 0 0.7 0.2 1 0.4 0.2 0.3 0.4 0.6 0.4 1 0 0.3 0.1 0.7 0.4 0.9 0.2 0.3 0.5 0.4 0.9 0.4 0.4 0 0.7-0.1 0.9-0.4 0.3-0.2 0.4-0.6 0.4-0.9 0-0.4 0.2-0.7 0.4-1 0.3-0.2 0.6-0.4 1-0.4 0.3 0 0.7 0.2 0.9 0.4 0.3 0.3 0.4 0.6 0.4 1 0 0.8-0.3 1.6-0.7 2.3-0.5 0.6-1.2 1.1-2 1.4v9.6h1.7c0.5-1.9 1.6-3.7 3.1-5z"/></svg>